<svg style="position: absolute; width: 0; height: 0;" width="0" height="0" version="1.1" xmlns="http://www.w3.org/2000/svg" xmlns:xlink="http://www.w3.org/1999/xlink"><defs><symbol id="uniE001" viewBox="0 -212 1024 1024"><path d="M107 -204 q-19 0 -34 7 q-16 6 -28 19 q-13 12 -20 28 q-6 15 -6 34 l0 263 q0 19 6 34 q7 17 20 28 q12 12 28 19 q15 7 34 7 l263 0 q17 0 34 -7 q16 -7 28 -19 q12 -11 19 -28 q7 -15 7 -34 l0 -263 q0 -19 -7 -34 q-7 -16 -19 -28 q-12 -13 -28.5 -19.5 q-16.5 -6.5 -33.5 -6.5 l-263 0 ZM416 147 q0 9 -4 18 q-3 8 -10 14 q-6 7 -15 10 q-8 4 -17 4 l-263 0 q-9 0 -18 -4 q-8 -3 -15 -10 q-6 -6 -9 -14 q-4 -9 -4 -18 l0 -263 q0 -9 4 -17 q3 -9 9 -16 q7 -6 15 -9 q9 -4 18 -4 l263 0 q9 0 17 4 q9 3 15 9 q7 7 10.5 15.5 q3.5 8.5 3.5 17.5 l0 263 ZM917 235 q18 0 34 -7 q16 -7 29 -19 q12 -11 19 -28 q7 -15 7 -34 l0 -263 q0 -19 -7 -34 q-7 -16 -19 -28 q-13 -13 -29 -19.5 q-16 -6.5 -34 -6.5 l-263 0 q-18 0 -35 7 q-15 6 -28 19 q-12 12 -19 28 q-7 15 -7 34 l0 263 q0 19 7 34 q7 17 19 28 q13 12 28 19 q17 7 35 7 l263 0 ZM609 -116 q0 -9 3 -17 q4 -9 10 -16 q6 -6 14 -9 q8 -4 18 -4 l263 0 q9 0 17 4 q9 3 15 9 q6 7 10 16 q3 8 3 17 l0 263 q0 9 -3 18 q-3 8 -10 14 q-6 7 -14 10 q-8 4 -18 4 l-263 0 q-10 0 -18 -4 q-8 -3 -14 -10 q-7 -6 -10 -14 q-3 -9 -3 -18 l0 -263 ZM107 362 q-19 0 -34.5 7.5 q-15.5 7.5 -27.5 18.5 q-13 13 -20 29 q-6 16 -6 35 l0 263 q0 17 6.5 33.5 q6.5 16.5 19.5 28.5 q12 12 28 19 q15 7 34 7 l263 0 q17 0 33.5 -7 q16.5 -7 28.5 -19 q12 -12 19 -28 q7 -17 7 -34 l0 -263 q0 -19 -7 -35 q-7 -16 -19 -29 q-12 -11 -28 -19 q-17 -7 -34 -7 l-263 0 ZM416 715 q0 9 -4 17 q-3 8 -10 14 q-6 7 -15 11 q-8 3 -17 3 l-263 0 q-9 0 -18 -3 q-8 -4 -15 -11 q-6 -6 -9 -14 q-4 -8 -4 -17 l0 -263 q0 -10 4 -18 q3 -8 9 -15 q7 -6 15.5 -9.5 q8.5 -3.5 17.5 -3.5 l263 0 q9 0 17 4 q9 3 15 9 q7 6 10.5 14 q3.5 8 3.5 19 l0 263 ZM969 707 q18 -27 28 -58 q10 -31 10 -66 q0 -46 -18 -86 q-16 -40 -47 -71 q-31 -31 -71 -47 q-40 -18 -86 -18 q-45 0 -85.5 17 q-40.5 17 -70.5 48 q-31 31 -48 71 q-17 40 -17 86 q0 46 18 86 q16 40 47 70 q30 31 70 49 q41 16 86 16 q46 0 86 -16 q40 -18 70 -48 l65 43 q8 6 16 3 q8 -1 13 -9 q5 -7 4 -15 q-2 -9 -10 -15 l-60 -40 ZM785 762 q-37 0 -69.5 -14.5 q-32.5 -14.5 -56.5 -37.5 q-24 -25 -38 -58 q-15 -32 -15 -69 q0 -38 15 -70 q14 -32 38 -56 q24 -25 57 -39 q32 -14 69 -14 q38 0 70 14 q33 14 56 39 q25 24 39 56 q14 32 14 70 q0 37 -14 69 q-14 33 -39 58 q-23 23 -56 37 q-32 15 -70 15 Z"></path></symbol><symbol id="uniE002" viewBox="0 -212 1024 1024"><path d="M482 -204 q60 0 113 23 q53 23 93 63 q40 40 63 93 q23 53 23 114 q0 61 -23 113 q-23 54 -63 94 q-19 21 -43 35 q47 19 88 45 q41 27 75 62 q64 62 100 147 q36 83 36 179 q0 17 -11 29 q-12 11 -29 11 q-17 0 -28 -11 q-11 -12 -12 -29 q0 -80 -30 -148 q-29 -70 -82 -123 q-52 -51 -121 -81 q-69 -29 -149 -30 q-81 1 -150 30 q-69 30 -122 81 q-52 53 -82 123 q-30 68 -30 148 q0 17 -11 29 q-12 11 -29 11 q-17 0 -28.5 -11.5 q-11.5 -11.5 -11.5 -28.5 q1 -96 37 -179 q35 -85 99 -147 q34 -35 75 -62 q42 -26 88 -45 q-22 -14 -43 -35 q-40 -40 -63 -94 q-23 -52 -23 -113 q0 -61 23 -114 q23 -53 63 -93 q40 -40 94 -63 q52 -23 114 -23 ZM632 -61 q-29 -30 -67.5 -46.5 q-38.5 -16.5 -82.5 -16.5 q-45 0 -84 16 q-38 17 -67 47 q-30 28 -47 67 q-16 39 -16 83 q0 45 16 83 q17 38 47 68 q29 29 67 46 q38 16 83 16 q45 0 83 -16 q39 -17 68 -46 q29 -30 46 -68 q16 -38 16 -83 q0 -44 -16.5 -83 q-16.5 -39 -45.5 -67 Z"></path></symbol><symbol id="uniE003" viewBox="0 -212 1024 1024"><path d="M973 -160 q-13 -21 -32.5 -32.5 q-19.5 -11.5 -40.5 -11.5 l-627 0 q-22 0 -41 11 q-19 11 -31 30 l-170 274 q-15 25 -12 53 q2 29 20 51 l486 563 q11 12 28 19 q16 7 35 7 q16 0 34 -7 q17 -7 29 -19 l479 -563 q19 -22 21 -49 q3 -27 -12 -52 l-166 -274 ZM774 142 l-152 -283 l252 0 l-100 283 ZM459 174 l126 -252 l126 252 l-252 0 ZM399 142 l-104 -283 l252 0 l-148 283 ZM339 174 l-271 0 l170 -284 l101 284 ZM361 237 l155 441 l-372 -441 l217 0 ZM427 237 l315 0 l-157 472 l-158 -472 ZM808 237 l218 0 l-372 441 l154 -441 ZM931 -110 l171 284 l-271 0 l100 -284 Z"></path></symbol><symbol id="uniE004" viewBox="0 -212 1024 1024"><path d="M878 -56 q-72 -72 -164 -110 q-91 -38 -193 -38 q-101 0 -193 38 q-91 38 -163 110 q-71 72 -110 163 q-38 91 -38 192 q0 74 21 145 q21 70 61 131 q5 8 13 12 q9 4 18 4 q9 -1 18 -6 q7 -5 12 -14 q4 -8 3 -17 q0 -10 -5 -17 q-35 -54 -53 -114 q-18 -59 -18 -124 q5 -183 127 -305 q123 -123 307 -127 q185 4 307 126.5 q122 122.5 127 305.5 q-5 185 -128 307 q-121 123 -306 127 q-59 0 -116 -15 q-57 -16 -108 -47 q-13 -6 -26 -3 q-13 3 -21 15 q-8 13 -4 26 q3 15 15 22 q59 36 125 55 q66 18 135 18 q101 0 193 -38 q92 -38 164 -110 q71 -72 109 -163 q37 -91 38 -194 q-1 -101 -38 -192 q-38 -91 -109 -163 ZM502 -45 q-9 0 -17 3 q-8 3 -14 10 q-7 6 -10 15 q-3 8 -3 16 l0 320 l0 4 q2 18 15 29 q12 11 29 11 l253 -2 q12 0 22 -5 q11 -5 17 -16 q6 -11 6 -23 q0 -12 -6 -23 q-6 -11 -17 -16 q-10 -6 -22 -6 l-209 0 l0 -273 q0 -18 -12 -31 q-13 -12 -32 -13 Z"></path></symbol><symbol id="uniE005" viewBox="0 -212 1024 1024"><path d="M524 652 q-148 -4 -248 -104 q-100 -99 -104 -249 q4 -148 104 -248 q100 -100 248 -104 q148 4 249 104 q100 100 104 248 q-4 150 -104 249 q-101 100 -249 104 ZM524 28 q-117 2 -195 80 q-78 78 -82 195 q4 117 82 195 q78 78 195 82 q117 -4 195 -82 q78 -78 82 -195 q-4 -117 -82 -195 q-78 -78 -195 -80 ZM524 4 q-17 0 -27 -10 q-11 -11 -11 -28 l0 -132 q0 -17 10.5 -27.5 q10.5 -10.5 27.5 -10.5 q17 0 27.5 10.5 q10.5 10.5 10.5 27.5 l0 132 q0 17 -10.5 27.5 q-10.5 10.5 -27.5 10.5 ZM289 103 q-8 0 -15 -3 q-6 -4 -11 -9 l-95 -95 q-12 -11 -12 -25.5 q0 -14.5 12 -27.5 q11 -10 27 -10 q14 0 26 10 l95 95 q12 12 12 27 q0 15 -12 26 q-6 5 -13 9 q-8 3 -14 3 ZM59 337 q-19 0 -28.5 -9.5 q-9.5 -9.5 -9.5 -28.5 q0 -17 10 -27 q9 -10 28 -10 l132 0 q17 0 28 10 q10 10 10 27 q-1 19 -12 28 q-11 10 -26 10 l-132 0 ZM195 667 q-9 0 -16 -2 q-6 -4 -11 -9 q-12 -12 -12 -26 q0 -16 12 -28 l95 -95 q11 -10 26 -10 q15 0 27 10 q12 13 12 28 q0 14 -12 26 l-95 95 q-5 5 -11.5 8 q-6.5 3 -14.5 3 ZM524 804 q-17 -1 -27 -10 q-11 -11 -11 -28 l0 -132 q0 -19 11 -29 q10 -9 27 -10 q17 1 27.5 10.5 q10.5 9.5 10.5 28.5 l0 132 q0 17 -10.5 27 q-10.5 10 -27.5 11 ZM853 667 q-8 0 -14 -2 q-7 -4 -12 -9 l-95 -95 q-11 -12 -11 -26 q0 -15 11 -28 q12 -10 27 -10 q15 0 27 10 l95 95 q11 12 11 28 q0 14 -11 26 q-6 5 -12.5 8 q-6.5 3 -15.5 3 ZM857 337 q-17 0 -27.5 -9.5 q-10.5 -9.5 -10.5 -28.5 q0 -17 11 -27 q10 -10 27 -10 l133 0 q18 0 28 10 q10 10 10 27 q0 19 -11 28 q-9 10 -27 10 l-133 0 ZM760 103 q-10 0 -16 -3 q-7 -4 -12 -9 q-11 -11 -11 -26 q0 -15 11 -27 l95 -95 q12 -10 26 -10 q16 0 28 10 q11 13 11 27 q0 15 -11 26 l-95 95 q-6 5 -12 9 q-7 3 -14 3 ZM505 87 q-85 8 -141 69 q-57 60 -60 147 q3 87 58 147 q56 59 143 69 l0 -432 Z"></path></symbol><symbol id="uniE006" viewBox="0 -212 1024 1024"><path d="M389 -204 q-39 1 -64 27 q-26 26 -27 65 q1 39 27 64 q25 26 64 27 l820 0 q39 -1 64 -27 q27 -25 27 -64 q0 -39 -27 -65 q-25 -26 -64 -27 l-820 0 ZM389 206 q-39 1 -64 27 q-26 25 -27 64 q1 39 26.5 65 q25.5 26 64.5 27 l820 0 q39 -1 64 -27 q27 -26 27 -65 q0 -39 -27 -64 q-25 -26 -64 -27 l-820 0 ZM389 618 q-39 1 -64 27 q-26 27 -27 66 q1 38 27 65 q25 25 64 27 l820 0 q39 -2 64 -27 q27 -27 27 -65 q0 -39 -27 -66 q-25 -26 -64 -27 l-820 0 ZM113 -203 q-39 2 -64 27 q-26 26 -27 64 l0 2 q1 38 27 64 q25 25 64 27 q38 -2 64 -27 q25 -26 26 -64 l0 -2 q-1 -38 -26 -64 q-26 -25 -64 -27 ZM113 207 q-39 1 -64 27 q-26 26 -27 63 l0 3 q1 38 27 63 q25 26 64 27 q38 -1 64 -27 q25 -25 26 -63 l0 -3 q-1 -37 -26 -63 q-26 -26 -64 -27 ZM113 621 q-39 0 -64 25 q-26 26 -27 65 l0 3 q1 37 27 63 q25 26 64 27 q38 -1 64 -27 q25 -26 26 -63 l0 -3 q-1 -39 -26 -65 q-26 -25 -64 -25 Z"></path></symbol><symbol id="uniE007" viewBox="0 -212 1024 1024"><path d="M36 762 q-8 0 -14 7 q-6 5 -6 14 q0 9 6 15 q6 6 14 6 l967 0 q9 0 15 -6 q6 -6 6 -15 q0 -9 -6 -14 q-6 -7 -15 -7 l-967 0 ZM1003 708 q9 0 15 -6 q6 -6 6 -16 l0 -338 q0 -9 -6 -15 q-6 -5 -15 -5 l-242 0 q-9 0 -15 5 q-6 6 -6 15 l0 339 q0 9 6 15 q6 6 15 6 l242 0 ZM981 369 l0 296 l-198 0 l0 -296 l198 0 ZM641 708 q9 0 15 -6 q6 -6 6 -16 l0 -869 q0 -9 -6 -15 q-6 -6 -15 -6 l-242 0 q-9 0 -15 6 q-6 6 -6 15 l0 869 q0 10 6 16 q6 6 15 6 l242 0 ZM619 -162 l0 827 l-199 0 l0 -827 l199 0 ZM279 708 q8 0 14 -6 q6 -6 6 -16 l0 -531 q0 -9 -6 -14 q-6 -6 -14 -7 l-243 0 q-8 1 -14 7 q-6 5 -6 14 l0 531 q0 10 6 16 q6 6 14 6 l243 0 ZM257 176 l0 489 l-199 0 l0 -489 l199 0 Z"></path></symbol><symbol id="uniE008" viewBox="0 -212 1024 1024"><path d="M520 804 q-214 -6 -357 -148 q-141 -142 -147 -356 q6 -214 147 -356 q143 -142 357 -148 q213 6 356 148 q142 142 148 356 q-6 214 -148 356 q-143 142 -356 148 ZM520 -154 q-192 5 -321 133 q-128 129 -133 321 q5 192 133 321 q129 128 321 133 q192 -5 321 -133 q128 -129 133 -321 q-5 -192 -133 -321 q-129 -128 -321 -133 ZM430 502 q-11 0 -19 -7 l-196 -201 q-7 -8 -7 -18 q0 -9 8 -17 q7 -8 17 -7.5 q10 0.5 18 8.5 l180 182 l358 -338 q9 -7 19 -7 q10 1 18 8 q7 8 7 19 q-1 10 -8 18 l-377 353 q-9 8 -18 7 Z"></path></symbol><symbol id="uniE009" viewBox="0 -212 1024 1024"><path d="M520 -204 q-215 5 -357 148 q-142 141 -147 356 q5 215 147 356 q142 143 357 148 q214 -5 356 -148 q143 -141 148 -356 q-5 -215 -148 -356 q-142 -143 -356 -148 ZM678 498 l-158 -159 l-159 159 l-39 -40 l158 -158 l-158 -158 l39 -40 l159 159 l158 -159 l40 40 l-159 158 l159 158 l-40 40 Z"></path></symbol><symbol id="uniE00A" viewBox="0 -212 1024 1024"><path d="M434 673 l8 -7 q35 -30 79 -28 q44 3 76 35 l49 55 q19 -4 38 -12 q18 -8 36 -17 l-4 -73 l0 -12 q4 -47 37 -76 q33 -29 81 -27 l74 4 q8 -18 16 -36 q8 -19 14 -38 l-55 -49 l-8 -7 q-30 -34 -28 -80 q2 -43 36 -76 l55 -47 q-6 -20 -14 -38 q-8 -20 -16 -36 l-74 3 l-11 0 q-48 -3 -77 -37 q-29 -33 -26 -80 l3 -74 q-16 -10 -36 -17 q-18 -8 -38 -13 l-48 55 l-7 7 q-35 31 -79 29 q-44 -2 -76 -36 l-49 -55 q-13 5 -32 13.5 q-19 8.5 -41 19.5 l3 74 l0 10 q-3 49 -37 78 q-32 29 -81 26 l-74 -3 q-8 16 -16 36 q-8 18 -14 38 l56 47 l8 8 q30 35 27.5 79 q-2.5 44 -35.5 76 l-56 49 q6 19 14 38 q8 18 16 36 l74 -4 l11 0 q48 4 77 37 q29 32 27 81 l-4 74 l37 11 q17 6 37 14 l47 -55 ZM243 617 q0 -16 -10 -26 q-10 -11 -24 -14 l-3 0 l-96 3 q-12 0 -20 -4.5 q-8 -4.5 -14 -13.5 q-39 -60 -55 -133 q-3 -10 -0.5 -19.5 q2.5 -9.5 11.5 -17.5 l74 -66 q11 -11 12 -26 q0 -14 -8 -26 l-4 -3 l-74 -67 q-9 -6 -11 -16 q-3 -10 0 -21 q16 -72 55 -133 q6 -8 14 -14 q8 -4 20 -4 l96 3 q17 0 27 -9 q11 -10 13 -25 l0 -3 l-3 -96 q0 -11 5 -21 q6 -9 17 -12 q41 -22 75 -35 q33 -13 57 -21 q12 -2 21 0 q8 2 16 12 l67 74 q12 10 26 11 q15 0 26 -8 l4 -3 l67 -74 q6 -10 15 -12 q10 -2 22 0 q71 16 133 56 q8 5 12 13 q6 9 6 20 l-3 96 q0 17 9 28 q9 10 23 12 l5 0 l96 -3 q10 0 19 5 q8 5 14 13 q38 62 56 133 q2 12 0 20 q-4 9 -12 17 l-74 67 q-10 12 -12 26 q0 15 9 26 l3 4 l74 66 q8 5 12 16 q2 10 0 21 q-18 72 -56 134 q-6 8 -14 12 q-9 6 -19 6 l-96 -5 q-18 2 -28 11 q-10 9 -14 23 l0 3 l5 97 q0 11 -5.5 19.5 q-5.5 8.5 -13.5 13.5 q-61 39 -134 55 q-10 4 -19 0 q-9 -2 -18 -10 l-66 -74 q-11 -12 -26 -12 q-14 -1 -26 8 l-3 4 l-67 74 q-6 8 -15 10 q-10 4 -22 0 q-72 -16 -133 -55 q-11 -2 -16 -12 q-6 -9 -6 -21 l4 -97 ZM520 525 q-94 -2 -157 -65 q-63 -62 -65 -157 q2 -93 65 -156 q63 -62 157 -66 q93 4 156 66.5 q63 62.5 66 155.5 q-3 95 -65 157 q-64 63 -157 65 ZM520 451 q62 -1 104 -43 q43 -41 44 -105 q-1 -62 -44 -104 q-42 -41 -104 -44 q-63 3 -105 44.5 q-42 41.5 -43 103.5 q1 64 44 105 q41 42 104 43 Z"></path></symbol><symbol id="uniE00B" viewBox="0 -212 1024 1024"><path d="M33 792 q5 4 12 6 q6 4 14 4 q52 1 324 1 q271 1 312 1 l5 0 q9 0 15 -4.5 q6 -4.5 11 -12.5 q9 -15 8 -30 l0 -471 q5 33 10 65 q5 31 10 63 q12 72 25 145 l11 67 q5 34 10 69 q3 18 6 35.5 q3 17.5 6 35.5 q1 15 10 26 q9 9 24 12 l143 0 q7 0 12 -2 q6 -3 13 -8 q9 -13 10 -25 l0 -13 q-2 -13 -3 -26 q-1 -13 -2 -25 q-3 -23 -5 -46 q-4 -24 -7 -46 q-2 -21 -6 -40 q-2 -20 -4 -41 q-2 -23 -6 -46 q-3 -24 -5 -47 q-4 -19 -6.5 -39 q-2.5 -20 -4.5 -40 q-3 -24 -6 -47 q-3 -23 -6 -46 q-3 -20 -6 -40 q-2 -19 -4 -41 q-3 -22 -6 -46 q-3 -23 -6 -46 q-3 -20 -6 -39 q-2 -21 -3 -42 q-4 -22 -7 -46 q-4 -24 -6 -46 q-7 -42 -12 -85 q-1 -10 -6 -18 q-3 -9 -12 -15 q-5 -4 -9 -5 q-6 0 -11 -2 l-815 0 q-3 2 -8 2 q-3 1 -8 2 q-9 6 -14 14 q-6 8 -6 19 l0 933 q1 9 5 14 q2 7 10 12 ZM851 -159 q5 0 5 6 l5 31 q2 16 4 30 l18 140 q9 69 18 138 q9 69 18 141 q9 70 18 138 l18 140 q9 68 18 138 q0 5 1 8 q1 3 1 8 q0 2 -1 3 q0 1 -3 1 l-34 0 q-3 0 -3 -1 q-1 -2 -1 -5 q-1 -15 -3.5 -30.5 q-2.5 -15.5 -4.5 -31.5 q-9 -70 -18 -139 q-9 -69 -18 -138 q-9 -70 -18 -142 q-9 -68 -18 -138 q-9 -69 -18 -138 q-9 -70 -18 -139 q0 -4 -1 -9 q-1 -3 -1 -8 q0 -2 0.5 -2.5 q0.5 -0.5 2.5 -0.5 l33 0 ZM766 -159 q6 0 6 6 q3 18 5 36 q3 18 5 34 q9 69 18 139 q9 70 18 138 q9 70 19 139 q3 34 9 69 q5 35 10 72 q9 69 18 139 q6 36 10 72 q6 36 10 72 l0 4 l-36 0 q-5 0 -5 -5 q-5 -33 -9 -65 l-9 -65 q-9 -68 -18 -138 q-9 -70 -18 -139 q-9 -69 -19 -139 q-9 -69 -18 -141 q-9 -68 -18 -138 q-3 -21 -6 -43 q-3 -22 -6 -44 q-2 -2 -1 -3 l35 0 ZM66 761 q-3 0 -4 -1 q-1 0 -1 -4 l0 -74 q0 -5 5 -5 l284 0 q6 0 6 5 l0 74 q-2 4 -3 4 q-2 1 -5 1 l-282 0 ZM682 -158 q4 0 5 1 l0 785 q0 5 -1 7 q-2 1 -6 1 l-279 0 q-5 0 -6 -1 q-1 -1 -1 -4 l0 -781 q0 -5 2 -7 q2 -1 7 -1 l279 0 ZM682 677 q5 0 5 5 l0 74 q0 5 -5 5 l-284 0 q-5 0 -5 -5 l0 -74 q2 -5 8 -5 l281 0 ZM347 -158 q3 0 4 1 q1 1 1 5 l0 780 q0 5 -1 6 q-2 1 -4 1 l-281 0 q-4 0 -4 -2 q-1 -1 -1 -5 l0 -778 q0 -5 1 -7 q0 -1 4 -1 l281 0 ZM128 -42 q-1 0 -2 1 l0 35 q0 7 5 7 l151 0 q3 0 5 -1 q1 -2 1 -6 l0 -32 q-1 -3 -2 -3 q-1 -1 -4 -1 l-154 0 ZM128 42 q-1 0 -2 1 l0 36 q0 6 5 6 l151 0 q3 0 4.5 -1 q1.5 -1 1.5 -5 l0 -32 q-1 -1 -2 -4 q-1 -1 -4 -1 l-154 0 ZM128 127 q-1 0 -2 1 l0 36 q0 5 5 5 l151 0 q3 0 4.5 -1 q1.5 -1 1.5 -4 l0 -33 l-2 -2 q-1 -2 -4 -2 l-154 0 ZM467 -42 q-2 0 -3 1 l0 35 q0 7 4 7 l153 0 q2 0 3 -1 q2 -2 2 -6 l0 -32 q-2 -3 -3 -3 q0 -1 -2 -1 l-154 0 ZM467 42 q-2 0 -3 1 l0 36 q0 6 4 6 l153 0 q2 0 3.5 -1 q1.5 -1 1.5 -5 l0 -32 q-2 -1 -3 -4 q0 -1 -2 -1 l-154 0 ZM467 127 q-2 0 -3 1 l0 36 q0 5 4 5 l153 0 q2 0 3.5 -1 q1.5 -1 1.5 -4 l0 -33 l-3 -2 q0 -2 -2 -2 l-154 0 Z"></path></symbol><symbol id="uniE00C" viewBox="0 -212 1024 1024"><path d="M147 -74 l315 -6 l314 -5 l0 888 l-160 -158 l-159 -159 l-321 318 l5 -439 l6 -439 ZM17 -204 l319 0 q196 0 261 5 q64 7 59 25 q4 17 -54 24 q-59 7 -231 10 l-283 6 l-11 388 q-5 210 -14 302 q-7 92 -21 93 q-15 9 -20 -82 q-5 -93 -5 -340 l0 -431 Z"></path></symbol><symbol id="uniE00D" viewBox="0 -212 1024 1024"><path d="M754 445 q39 -52 61 -113 q21 -60 21 -126 q-3 -175 -119 -290.5 q-116 -115.5 -289 -119.5 q-175 4 -291 120 q-115 115 -119 290 q4 174 119 289 q116 116 291 120 q66 0 126.5 -20.5 q60.5 -20.5 112.5 -55.5 l246 246 q19 19 44 19 q24 0 43 -19 q19 -20 19 -44 q0 -25 -19 -44 l-246 -252 ZM428 553 q-147 -5 -245 -103 q-99 -99 -102 -244 q3 -146 102 -245 q98 -99 245 -102 q145 3 243.5 102 q98.5 99 102.5 245 q-4 145 -103 244 q-98 98 -243 103 Z"></path></symbol><symbol id="uniE00E" viewBox="0 -212 1024 1024"><path d="M435 204 l0 -168 l0 -169 q0 -30 19 -50 q18 -19 48 -20 q29 -1 20 -1 q-9 0 20 1 q30 1 48 20 q19 20 19 49 l0 169 l0 178 l9 0 l168 0 l168 0 q33 0 52 20 q19 20 20 52 q0 26 0 15 q0 -11 0 15 q-1 32 -20 53 q-19 19 -52 19 l-345 0 l0 7 l0 169 l0 169 q0 26 -14 45 q-13 18 -37 25 q-9 2 -19 2 q-27 0 -16.5 0 q10.5 0 -16.5 0 q-31 -1 -50 -20 q-21 -19 -21 -51 l0 -169 l0 -177 l-9 0 l-169 0 l-168 0 q-31 0 -50.5 -19.5 q-19.5 -19.5 -20.5 -50.5 l0 -17 l0 -17 q1 -30 20 -50 q20 -19 50 -20 l169 0 l168 0 l10 0 l0 -9 Z"></path></symbol><symbol id="uniE010" viewBox="0 -212 1024 1024"><path d="M798 -85 q-14 0 -22 9 q-9 8 -9 23 l0 725 q-1 25 -20 43 q-19 19 -43 20 l-550 0 q-31 -1 -56 -19.5 q-25 -18.5 -26 -43.5 l0 -69 q1 -23 23 -36 q22 -13 52 -13 l525 0 q15 -1 23 -9 q9 -9 9 -23 l0 -614 q-1 -52 -35 -81 q-33 -30 -90 -31 l-425 0 q-55 0 -96 29 q-40 27 -42 83 l0 771 l0 6 l0 7 l0 6 q6 43 40 72 q35 28 78 34 l7 0 q0 0 1 0 q1 0 5 0 l557 0 q53 -2 88 -36 q36 -35 37 -83 l0 -738 q0 -11 -8 -21 q-9 -10 -23 -11 ZM165 616 q-13 0 -22 9 q-8 8 -9 22 q1 15 9 23 q9 9 22 9 l514 0 q14 0 23 -9 q8 -8 9 -23 q-1 -14 -9 -22 q-9 -9 -23 -9 l-514 0 Z"></path></symbol><symbol id="uniE011" viewBox="0 -212 1024 1024"><path d="M523 -204 q-216 5 -357 148 q-142 141 -148 355 q6 216 148 357 q141 142 357 148 q214 -6 355 -148 q144 -141 148 -357 q-4 -214 -146.5 -356 q-142.5 -142 -356.5 -147 ZM237 624 q15 -109 94 -179 q79 -71 192 -73 q112 2 191 73 q79 70 95 179 q-59 50 -131 79 q-73 29 -155 29 q-84 0 -156 -29 q-73 -29 -130 -79 ZM378 155 q2 -61 42 -101 q41 -41 103 -43 q60 2 100.5 42.5 q40.5 40.5 43.5 101.5 q-3 62 -43.5 102.5 q-40.5 40.5 -100.5 41.5 q-62 -1 -103 -41 q-40 -41 -42 -103 ZM868 558 q-24 -79 -79.5 -140 q-55.5 -61 -133.5 -93 q39 -30 61 -73.5 q22 -43.5 23 -96.5 q-2 -91 -64 -152 q-61 -61 -152 -64 q-93 3 -153.5 64 q-60.5 61 -63.5 152 q0 53 23 96 q21 44 60 74 q-78 32 -133 93 q-56 61 -79 140 q-42 -54 -64 -119 q-23 -66 -23 -140 q5 -183 126 -305 q123 -121 307 -127 q183 6 305 127 q121 122 126 305 q0 74 -23 140 q-22 65 -63 119 Z"></path></symbol><symbol id="uniE012" viewBox="0 -212 1024 1024"><path d="M1041 -116 q30 0 51 21 q21 21 21 51 l0 515 q0 30 -21 51 q-21 20 -51 21 l-180 0 q-35 1 -59 25 q-24 23 -25 59 q0 0 0 5 q0 5 0 15 q-41 -33 -72.5 -58.5 q-31.5 -25.5 -32.5 -27.5 q-10 -9 -25 -13 q-13 -5 -27 -5 l-443 0 q-30 -1 -51 -21.5 q-21 -20.5 -21 -50.5 l0 -515 q0 -30 21 -51 q21 -21 51 -21 l864 0 ZM177 -202 q-65 1 -110 46 q-45 45 -46 110 l0 515 q1 65 46 110 q45 45 110 46 l443 0 q10 9 94 77 q84 67 113 91 q17 13 25 13 q9 0 9 -13 l0 -89 l0 -79 l180 0 q67 -1 110 -46 q45 -45 46 -110 l0 -515 q-1 -65 -46 -110 q-45 -45 -110 -46 l-864 0 ZM924 220 q0 26 -18 45 q-19 17 -45 18 q-26 -1 -45 -18 q-17 -19 -18 -45 q1 -28 18 -45 q19 -18 45 -18 q26 0 44.5 17.5 q18.5 17.5 18.5 45.5 ZM672 220 q0 26 -18 45 q-19 17 -45 18 q-26 -1 -45 -18 q-17 -19 -18 -45 q1 -28 18 -45 q19 -18 45 -18 q26 0 44.5 17.5 q18.5 17.5 18.5 45.5 ZM420 220 q-1 26 -18 45 q-19 17 -45 18 q-26 -1 -45 -18 q-18 -19 -18 -45 q0 -28 18 -45 q19 -18 45 -18 q26 0 45 18 q17 17 18 45 Z"></path></symbol><symbol id="uniE013" viewBox="0 -212 1024 1024"><path d="M56 244 q0 32 15 58 q16 26 43 43 q28 15 59 15 q31 0 58 -15 q28 -17 43 -43 q15 -26 15 -58 q-1 -50 -34 -83 q-33 -33 -82 -34 q-50 1 -83 34 q-33 33 -34 83 ZM421 530 q1 30 20 50 q20 19 50 20 q30 -1 50 -20 q20 -20 20 -50 q0 -30 -20 -50 q-20 -20 -50 -20 q-30 0 -50 20 q-19 20 -20 50 ZM850 152 q30 0 49 20 q20 20 21 50 q0 -30 20 -50 q21 -20 50 -20 q-29 -1 -50 -22 q-20 -19 -20 -48 q-1 29 -20 48 q-20 21 -50 22 ZM920 241 q-8 -1 -13 -6 q-6 -5 -6 -13 q0 -22 -15 -37 q-14 -14 -36 -14 q-8 -1 -13 -6 q-6 -6 -6 -13 q0 -9 6 -13 q5 -6 13 -6 q22 0 36.5 -15 q14.5 -15 14.5 -36 q0 -9 6 -13 q5 -6 13 -6 q7 0 12.5 5 q5.5 5 6.5 14 q0 21 14 35 q16 16 37 16 q9 0 13 6 q5 4 6 13 q-1 7 -6 13 q-4 5 -13 6 q-21 0 -37 14 q-14 15 -14 37 q-1 8 -6 13 q-6 5 -13 6 ZM904 152 q9 6 16 15 q6 -8 16 -15 q-9 -7 -16 -17 q-7 10 -16 17 ZM588 -27 q59 2 100 41 q39 39 40 99 q3 -60 42 -99 q39 -39 98 -41 q-59 -1 -98 -41 q-39 -40 -42 -99 q-1 59 -41 99 q-40 40 -99 41 ZM728 132 q-7 0 -12.5 -5.5 q-5.5 -5.5 -5.5 -13.5 q-2 -51 -36 -85.5 q-34 -34.5 -86 -35.5 q-8 0 -13 -6 q-5 -5 -6 -13 q1 -7 6 -13 q5 -5 13 -5 q52 -2 87 -36 q33 -34 35 -86 q0 -9 5.5 -13.5 q5.5 -4.5 12.5 -5.5 q8 1 13 6 q6 4 6 13 q1 52 36 86 q34 34 85 36 q8 0 13.5 5.5 q5.5 5.5 5.5 12.5 q0 8 -5 13 q-6 6 -14 6 q-51 1 -85 35 q-35 35 -36 86 q0 8 -6 14 q-5 5 -13 5 ZM663 -27 q21 12 37.5 28.5 q16.5 16.5 27.5 36.5 q12 -20 29 -37 q16 -16 36 -28 q-20 -11 -36 -28 q-17 -16 -29 -38 q-11 22 -27 38 q-17 17 -38 28 ZM523 804 q-215 -5 -357 -147 q-142 -142 -147 -357 q5 -213 146.5 -355.5 q141.5 -142.5 355.5 -148.5 q10 0 19 5 q8 4 13 13 q4 9 4 19 q0 9 -4 19 q-19 35 -30 73.5 q-11 38.5 -11 79.5 q4 133 92.5 221 q88.5 88 220.5 92 q77 0 146 -37 q10 -5 19 -4 q10 0 19 5 q8 6 13 14 q5 9 5 19 q-4 99 -43 188 q-39 89 -110 159 q-71 70 -161 105 q-90 37 -190 37 ZM461 -125 q-159 25 -262 143 q-102 117 -105 282 q4 183 125 304 q121 121 304 125 q164 -2 279 -101 q116 -99 144 -256 q-28 10 -59 15 q-30 4 -60 4 q-165 -3 -274 -114 q-109 -109 -114 -273 q0 -34 6 -66 q6 -32 16 -63 Z"></path></symbol><symbol id="uniE015" viewBox="0 -212 1024 1024"><path d="M478 360 q99 -23 161 -98 q64 -77 65 -182 q-4 -121 -84 -201 q-81 -81 -202 -83 q-121 3 -202 84 q-80 82 -83 202 q3 106 66.5 181.5 q63.5 75.5 162.5 97.5 q-150 25 -246 135 q-96 111 -99 267 q0 18 12 29 q12 12 30 12 l726 -3 q18 0 30 -12 q12 -12 12 -30 q-4 -156 -102 -266 q-97 -109 -247 -133 Z"></path></symbol><symbol id="uniE016" viewBox="0 -212 1024 1024"><path d="M76 804 q-11 0 -22 -3 q-10 -4 -19 -12 q-20 -18 -22 -43 q-2 -25 15 -46 l343 -400 l-343 -400 q-17 -21 -15 -46 q2 -25 22 -43 q20 -17 45.5 -15 q25.5 2 43.5 22 l377 441 q16 18 16 41 q0 23 -16 41 l-377 441 q-10 11 -22 17 q-13 5 -26 5 Z"></path></symbol><symbol id="uniE022" viewBox="0 -212 1024 1024"><path d="M509 804 q-26 0 -49 -10 q-23 -9 -41 -28 l-372 -371 q-19 -19 -28.5 -43.5 q-9.5 -24.5 -8.5 -51.5 q-1 -27 9 -51 q9 -25 28 -43 l372 -372 q18 -18 41 -28 q23 -10 49 -10 q26 0 50 10 q23 10 42 28 q38 39 38 91 q0 52 -38 91 l-285 284 l285 284 q38 40 38 91 q0 52 -38 91 q-19 19 -42 28 q-24 10 -50 10 ZM509 -143 q-13 0 -26 5 q-12 5 -22 15 l-364 371 q-10 11 -11 24 q-2 12 -1 27 l0 2 q-1 15 1 28 q1 13 11 23 l368 371 q19 20 47 21 q27 -1 46 -21 q21 -21 20 -48 q0 -27 -20 -48 l-305 -305 q-9 -10 -9 -22 q0 -12 9 -21 l305 -306 q20 -21 20 -48 q0 -27 -20 -48 q-10 -10 -22 -15 q-13 -5 -27 -5 Z"></path></symbol><symbol id="uniE00F" viewBox="0 -212 1024 1024"><path d="M107 712 l0 -137 l-37 0 q-3 -2 -28 8 q-23 11 -26 61 q3 49 26 60 q25 10 28 8 l37 0 ZM107 529 l0 -137 l-37 0 q-3 -2 -28 8 q-23 11 -26 60 q3 50 26 60 q25 11 28 9 l37 0 ZM107 117 l0 -138 l-37 0 q-3 -2 -27 9 q-24 11 -27 60 q3 49 27 60 q24 11 27 9 l37 0 ZM107 300 l0 -138 l-37 0 q-3 -2 -28 9 q-23 11 -26 60 q3 49 27 60 q24 11 27 9 l37 0 ZM153 783 q0 9 5 15 q6 6 16 6 l499 0 q-20 -18 -35 -41 l-443 0 l0 -834 l603 0 l0 554 q22 1 42 6 l0 -581 q0 -9 -6 -15 q-6 -5 -15 -5 l-645 0 q-9 0 -15 5.5 q-6 5.5 -6 14.5 l0 875 ZM199 -204 l0 43 l691 0 l0 672 q24 13 41 34 l0 -749 l-732 0 ZM840 804 l0 -92 l91 0 l0 -91 l-91 0 l0 -92 l-92 0 l0 92 l-91 0 l0 91 l91 0 l0 92 l92 0 Z"></path></symbol><symbol id="uniE023" viewBox="0 -212 1024 1024"><path d="M337 254 q-9 0 -16 6 q-6 7 -6 17 q0 5 2 9 q1 3 4 8 l184 182 q3 3 8 6 q3 2 8 2 q6 0 9 -2 q4 -3 7 -6 l184 -182 q3 -5 4 -8 q3 -4 3 -9 q0 -10 -7 -17 q-6 -6 -16 -6 q-5 0 -10 2 q-3 2 -6 5 l-145 144 l0 -586 q0 -11 -7 -17 q-5 -6 -16 -6 q-11 0 -16 6 q-6 6 -6 17 l0 586 l-145 -144 q-4 -3 -7 -5 q-4 -2 -10 -2 ZM622 -193 q-2 -1 -4.5 -1.5 q-2.5 -0.5 -4.5 -0.5 q-10 0 -17 6 q-6 6 -6 17 q0 10 6 16 q7 7 17 7 q160 35 262 158 q102 121 105 291 q-5 195 -135 323 q-129 130 -324 136 q-194 -6 -323 -136 q-130 -128 -136 -323 q4 -170 106 -291 q102 -123 262 -158 q10 0 16 -6.5 q6 -6.5 6 -16.5 q0 -11 -6 -17 q-6 -6 -16 -6 l-6 0 l-4 2 q-177 38 -288 173 q-112 134 -115 320 q6 215 147 357 q142 142 357 147 q215 -5 357 -147 q142 -142 147 -357 q-3 -186 -115 -320 q-110 -135 -288 -173 Z"></path></symbol><symbol id="uniE014" viewBox="0 -212 1024 1024"><path d="M901 -204 q-6 2 -112 31 q-106 29 -235 64 l-62 0 q-124 -32 -233 -63 q-107 -30 -113 -32 q-54 2 -89.5 37.5 q-35.5 35.5 -36.5 89.5 l0 660 q2 51 38 81 q37 29 88 45 q5 2 107 30 q102 28 239 65 l62 0 q138 -37 240 -65 q102 -28 107 -30 q52 -12 87 -43 q37 -30 38 -83 l0 -660 q-1 -54 -36.5 -89.5 q-35.5 -35.5 -88.5 -37.5 ZM146 647 q-27 -8 -44.5 -23 q-17.5 -15 -19.5 -41 l0 -660 q2 -27 19 -45 q18 -18 45 -18 l346 93 l0 787 l-346 -93 ZM964 583 q0 26 -19 42 q-17 14 -44 22 q-5 1 -107 29 q-102 27 -240 64 l0 -787 l347 -93 q27 0 44 18 q19 18 19 45 l0 660 Z"></path></symbol><symbol id="uniE030" viewBox="0 -212 1024 1024"><path d="M687 114 l-167 -318 l-167 318 l-337 68 l235 263 l-43 359 l312 -154 l312 154 l-42 -359 l235 -263 l-338 -68 Z"></path></symbol><symbol id="uniE031" viewBox="0 -212 1024 1024"><path d="M686 114 l-166 -318 l-167 318 l-337 68 l235 263 l-43 359 l312 -154 l312 154 l-43 -359 l235 -263 l-338 -68 ZM520 -105 l136 260 l280 56 l-195 218 l35 296 l-256 -126 l0 -704 Z"></path></symbol><symbol id="uniE032" viewBox="0 -212 1024 1024"><path d="M214 804 l61 -364 l-259 -259 l357 -53 l160 -332 l160 332 l356 53 l-258 259 l61 364 l-319 -172 l-319 172 ZM493 558 l40 -22 l40 22 l262 141 l11 65 l-30 20 l-57 -30 l-50 -300 l-8 -44 l31 -30 l214 -215 l62 10 l12 35 l-44 45 l-296 -45 l-44 -5 l-19 -41 l-131 -272 l29 -60 l35 0 l30 60 l-131 272 l-20 41 l-44 5 l-295 45 l-45 -45 l12 -35 l62 -10 l245 245 l-7 44 l-50 300 l-58 30 l-28 -20 l9 -65 l263 -141 Z"></path></symbol><symbol id="uniE033" viewBox="0 -212 1024 1024"><path d="M511 803 q-15 0 -29 -5 q-15 -6 -25 -16 l-418 -400 q-24 -24 -24 -55 q-1 -32 21 -56 q24 -24 55 -25 q31 0 56 22 l357 342 l647 -786 q21 -26 52 -28 q32 -4 58 17 q26 22 29 53 q2 31 -18 57 l-701 852 q-10 12 -25 20 q-14 7 -31 8 l-4 0 Z"></path></symbol><symbol id="uniE034" viewBox="0 -212 1024 1024"><path d="M778 65 q1 16 1 33 l0 538 q1 68 -33 117 q-35 49 -105 51 l-416 0 q-71 -2 -105 -51 q-34 -49 -34 -117 l0 -538 q0 -17 2 -33 l-71 0 l0 -134 l208 0 l0 -27 q1 -45 38 -76 q35 -31 89 -32 l163 0 q54 1 89 32 q36 31 37 76 l0 26 l209 1 l0 134 l-72 0 ZM572 -96 q-1 -17 -17 -28 q-17 -12 -40 -13 l-163 0 q-25 1 -40 13 q-17 11 -17 28 l0 26 l277 0 l0 -26 ZM710 98 q0 -17 -2 -33 l-550 0 q-3 16 -3 33 l0 538 q0 40 14 70 q15 30 56 31 l416 0 q42 -1 56 -31 q14 -30 13 -70 l0 -538 ZM225 132 l70 0 l0 538 l-70 0 l0 -538 ZM399 132 l69 0 l0 538 l-69 0 l0 -538 ZM572 132 l69 0 l0 538 l-69 0 l0 -538 Z"></path></symbol><symbol id="uniE035" viewBox="0 -212 1024 1024"><path d="M1010 743 q13 13 15 28 q2 15 -7 26 q-10 9 -26 7 q-14 -3 -27 -16 l-445 -445 l-443 445 q-13 14 -27 16 q-16 2 -25 -7 q-9 -11 -7 -26 q2 -14 14 -27 l443 -445 l-442 -442 q-13 -13 -15 -28.5 q-2 -15.5 7 -24.5 q10 -10 25 -7.5 q15 2.5 28 14.5 l442 442 l433 -436 q13 -12 27 -15 q15 -2 26 7 q9 10 6 25 q-2 15 -14 28 l-433 436 l445 445 Z"></path></symbol><symbol id="uniE040" viewBox="0 -212 1024 1024"><path d="M566 -108 q-99 -96 -226 -96 q-127 0 -227 96 q-93 98 -93 225 q0 127 93 225 l449 450 q13 12 28.5 12 q15.5 0 27.5 -12 q13 -13 13 -28 q0 -15 -13 -27 l-450 -451 q-68 -74 -68 -170 q0 -96 68 -168 q76 -69 172 -69 q94 0 166 69 l85 83 q13 13 27 13 q15 0 28 -13 l84 -83 q75 -69 171 -69 q95 0 168 69 q35 33 53 76 q18 43 18 91 q0 18 11 29 q11 10 29 10 q18 0 28 -10 q12 -11 12 -29 q0 -63 -23 -120 q-23 -57 -68 -103 q-99 -92 -226 -92 q-128 0 -225 92 l-56 56 l-56 -56 ZM785 777 q13 8 25 13 q14 5 31 7 q13 -2 26 -7 q13 -5 23 -13 l274 -275 q54 -56 54 -128 q0 -72 -54 -128 q-56 -53 -127 -53 q-71 0 -127 53 l-72 73 l-73 -73 q-56 -53 -127 -53 q-71 0 -127 53 q-54 56 -54 127 q0 73 54 129 l274 275 ZM1104 446 l-266 266 l-267 -266 q-30 -29 -30 -69 q0 -40 30 -71 q29 -30 67 -30 q40 0 73 30 l99 100 q13 12 28 12 q14 0 27 -12 l99 -100 q29 -30 69 -30 q40 0 71 30 q30 29 30 69 q0 39 -30 71 Z"></path></symbol><symbol id="uniE041" viewBox="0 -212 1024 1024"><path d="M761 804 l0 -1008 l-744 0 l0 1008 l744 0 ZM122 698 l0 -795 l533 0 l0 795 l-533 0 ZM668 758 l96 45 l307 -651 l-96 -45 l-307 651 ZM716 35 l333 163 l47 -95 l-333 -164 l-47 96 ZM342 252 l-102 16 l75 71 l-17 104 l92 -50 l94 48 l-19 -103 l73 -73 l-103 -14 l-47 -93 l-46 94 Z"></path></symbol><symbol id="uniE042" viewBox="0 -212 1024 1024"><path d="M18 717 q4 -219 7 -439 q92 -36 171 -103 q80 -66 148 -164 l90 64 l5 5 l2 1 l2 3 l3 1 l2 2 l2 1 l5 5 l2 1 l2 2 l3 1 l3 3 l2 1 l3 2 l2 1 l2 2 l3 2 l2 2 l2 1 l5 5 l2 1 l2 2 l3 1 l2 2 l45 31 l2 3 l2 1 l2 2 l3 1 l4 5 l3 1 l2 2 l2 1 l4 3 l2 1 l2 2 l2 1 l3 3 l2 1 l2 2 l3 1 l4 5 l2 1 l3 2 l2 1 l2 3 l98 68 q-137 193 -146 390 q-205 74 -410 151 l-36 -25 l175 -248 q33 13 67 3 q34 -11 56 -40 q26 -38 18.5 -80 q-7.5 -42 -43.5 -68 q-38 -25 -80 -19 q-41 7 -67 44 q-22 31 -20 65 q1 36 24 63 l-174 243 l-37 -25 ZM818 801 l0 -112 l-211 0 l-298 112 l509 0 ZM861 126 l-467 -330 l-88 126 l466 330 l89 -126 Z"></path></symbol><symbol id="uniE043" viewBox="0 -212 1024 1024"><path d="M731 218 q28 1 45.5 18.5 q17.5 17.5 18.5 44.5 l0 460 q-1 27 -18 45 q-18 17 -46 18 l-650 0 q-27 -1 -45 -18 q-17 -18 -18 -45 l0 -460 q1 -27 18 -44 q18 -18 45 -19 l71 0 l0 -167 q4 -108 75.5 -180.5 q71.5 -72.5 178.5 -74.5 q108 2 179.5 74.5 q71.5 72.5 74.5 180.5 l0 167 l71 0 ZM441 523 q20 -10 32 -28 q11 -18 11 -41 q-1 -34 -23 -56 q-22 -22 -55 -23 q-32 1 -55 23 q-21 22 -23 56 q0 23 12 41 q12 18 31 28 l0 100 q0 4 3 6 q2 2 5 2 l54 0 q4 0 6 -2 q2 -2 2 -6 l0 -100 ZM563 218 l0 -164 q-2 -66 -46 -110 q-44 -44 -111 -46 q-66 2 -110 46 q-44 44 -45 110 l0 164 l312 0 Z"></path></symbol></defs></svg>